<svg width="16" height="16" viewBox="0 0 16 16" fill="none" xmlns="http://www.w3.org/2000/svg">
<rect width="16" height="16" rx="4" fill="#D9D9D9"/>
<rect width="16" height="16" rx="4" fill="#D9D9D9"/>
<rect x="3" y="6.00024" width="10" height="7" rx="1" fill="#092188"/>
<circle cx="8" cy="9.00024" r="1" fill="#D9D9D9"/>
<rect x="7.66663" y="9.33362" width="0.666667" height="1.66667" rx="0.333333" fill="#D9D9D9"/>
<path fill-rule="evenodd" clip-rule="evenodd" d="M4.01986 3.92052C4.17629 2.82708 5.18951 2.06748 6.28294 2.22391L10.2426 2.79039C11.3361 2.94682 12.0957 3.96003 11.9392 5.05347L11.656 7.03331C11.5512 7.76613 11.0615 8.349 10.4207 8.60667L10.9493 4.91185C11.0275 4.36513 10.6477 3.85852 10.101 3.78031L6.14132 3.21383C5.59461 3.13562 5.088 3.51542 5.00978 4.06214L4.86816 5.05206L3.87824 4.91044L4.01986 3.92052Z" fill="#092188"/>
</svg>
